<mxfile host="app.diagrams.net" modified="2020-03-20T21:58:43.957Z" agent="Mozilla/5.0 (Windows NT 10.0; WOW64; rv:56.0) Gecko/20100101 Firefox/56.0" etag="OPYOyXHl2FO9e-TH_GS5" version="12.8.8" type="github">
  <diagram name="Page-1" id="6133507b-19e7-1e82-6fc7-422aa6c4b21f">
    <mxGraphModel dx="1422" dy="771" grid="1" gridSize="10" guides="1" tooltips="1" connect="1" arrows="1" fold="1" page="1" pageScale="1" pageWidth="1100" pageHeight="850" background="#ffffff" math="0" shadow="0">
      <root>
        <mxCell id="0" />
        <mxCell id="1" parent="0" />
        <mxCell id="VfxA0ULMO3mHmfpXdT4r-4" value="Interactor" style="shape=module;align=left;spacingLeft=20;align=center;verticalAlign=top;" parent="1" vertex="1">
          <mxGeometry x="130" y="140" width="190" height="240" as="geometry" />
        </mxCell>
        <mxCell id="VfxA0ULMO3mHmfpXdT4r-5" value="BasicGenerator" style="html=1;" parent="1" vertex="1">
          <mxGeometry x="175" y="180" width="110" height="30" as="geometry" />
        </mxCell>
        <mxCell id="VfxA0ULMO3mHmfpXdT4r-6" value="Sanitizer&amp;lt;I&amp;gt;" style="html=1;" parent="1" vertex="1">
          <mxGeometry x="175" y="230" width="110" height="30" as="geometry" />
        </mxCell>
        <mxCell id="VfxA0ULMO3mHmfpXdT4r-7" value="BasicSanitizer" style="html=1;" parent="1" vertex="1">
          <mxGeometry x="175" y="280" width="110" height="30" as="geometry" />
        </mxCell>
        <mxCell id="VfxA0ULMO3mHmfpXdT4r-8" value="ArgumentParser" style="html=1;" parent="1" vertex="1">
          <mxGeometry x="175" y="330" width="110" height="30" as="geometry" />
        </mxCell>
        <mxCell id="VfxA0ULMO3mHmfpXdT4r-10" value="Simulator" style="shape=module;align=left;spacingLeft=20;align=center;verticalAlign=top;" parent="1" vertex="1">
          <mxGeometry x="510" y="140" width="390" height="190" as="geometry" />
        </mxCell>
        <mxCell id="VfxA0ULMO3mHmfpXdT4r-11" value="StateGenerator&amp;lt;I&amp;gt;" style="html=1;" parent="1" vertex="1">
          <mxGeometry x="547.5" y="180" width="142.5" height="30" as="geometry" />
        </mxCell>
        <mxCell id="VfxA0ULMO3mHmfpXdT4r-15" value="ResourceAllocator" style="html=1;" parent="1" vertex="1">
          <mxGeometry x="547.5" y="230" width="142.5" height="30" as="geometry" />
        </mxCell>
        <mxCell id="VfxA0ULMO3mHmfpXdT4r-16" value="HiveNet" style="html=1;" parent="1" vertex="1">
          <mxGeometry x="547.5" y="280" width="142.5" height="30" as="geometry" />
        </mxCell>
        <mxCell id="VfxA0ULMO3mHmfpXdT4r-17" value="WDS&amp;lt;I&amp;gt;" style="html=1;" parent="1" vertex="1">
          <mxGeometry x="730" y="230" width="142.5" height="30" as="geometry" />
        </mxCell>
        <mxCell id="VfxA0ULMO3mHmfpXdT4r-18" value="Node&amp;lt;I&amp;gt;" style="html=1;" parent="1" vertex="1">
          <mxGeometry x="730" y="180" width="142.5" height="30" as="geometry" />
        </mxCell>
        <mxCell id="VfxA0ULMO3mHmfpXdT4r-19" value="Controller" style="shape=module;align=left;spacingLeft=20;align=center;verticalAlign=top;" parent="1" vertex="1">
          <mxGeometry x="130" y="510" width="330" height="140" as="geometry" />
        </mxCell>
        <mxCell id="VfxA0ULMO3mHmfpXdT4r-20" value="BasicNode" style="html=1;" parent="1" vertex="1">
          <mxGeometry x="175" y="550" width="110" height="30" as="geometry" />
        </mxCell>
        <mxCell id="VfxA0ULMO3mHmfpXdT4r-21" value="BasicSnapshot" style="html=1;" parent="1" vertex="1">
          <mxGeometry x="175" y="600" width="110" height="30" as="geometry" />
        </mxCell>
        <mxCell id="VfxA0ULMO3mHmfpXdT4r-22" value="BasicWDS" style="html=1;" parent="1" vertex="1">
          <mxGeometry x="320" y="550" width="110" height="30" as="geometry" />
        </mxCell>
        <mxCell id="VfxA0ULMO3mHmfpXdT4r-23" value="Snapshot&amp;lt;I&amp;gt;" style="html=1;" parent="1" vertex="1">
          <mxGeometry x="320" y="600" width="110" height="30" as="geometry" />
        </mxCell>
        <mxCell id="VfxA0ULMO3mHmfpXdT4r-25" value="Reporter" style="shape=module;align=left;spacingLeft=20;align=center;verticalAlign=top;" parent="1" vertex="1">
          <mxGeometry x="660" y="465" width="200" height="200" as="geometry" />
        </mxCell>
        <mxCell id="VfxA0ULMO3mHmfpXdT4r-26" value="BasicFormatter" style="html=1;" parent="1" vertex="1">
          <mxGeometry x="710" y="500" width="110" height="30" as="geometry" />
        </mxCell>
        <mxCell id="VfxA0ULMO3mHmfpXdT4r-28" value="Formatter&amp;lt;I&amp;gt;" style="html=1;" parent="1" vertex="1">
          <mxGeometry x="730" y="280" width="142.5" height="30" as="geometry" />
        </mxCell>
        <mxCell id="VfxA0ULMO3mHmfpXdT4r-30" value="" style="endArrow=block;endFill=1;html=1;edgeStyle=orthogonalEdgeStyle;align=left;verticalAlign=top;exitX=1;exitY=0.5;exitDx=0;exitDy=0;entryX=0;entryY=0.5;entryDx=10;entryDy=0;entryPerimeter=0;" parent="1" source="VfxA0ULMO3mHmfpXdT4r-4" target="VfxA0ULMO3mHmfpXdT4r-10" edge="1">
          <mxGeometry x="-1" relative="1" as="geometry">
            <mxPoint x="370" y="380" as="sourcePoint" />
            <mxPoint x="530" y="380" as="targetPoint" />
          </mxGeometry>
        </mxCell>
        <mxCell id="VfxA0ULMO3mHmfpXdT4r-31" value="" style="resizable=0;html=1;align=left;verticalAlign=bottom;labelBackgroundColor=#ffffff;fontSize=10;" parent="VfxA0ULMO3mHmfpXdT4r-30" connectable="0" vertex="1">
          <mxGeometry x="-1" relative="1" as="geometry" />
        </mxCell>
        <mxCell id="VfxA0ULMO3mHmfpXdT4r-34" value="" style="endArrow=block;endFill=1;html=1;edgeStyle=orthogonalEdgeStyle;align=left;verticalAlign=top;exitX=0.5;exitY=0;exitDx=0;exitDy=0;entryX=0.523;entryY=1.016;entryDx=0;entryDy=0;entryPerimeter=0;" parent="1" source="VfxA0ULMO3mHmfpXdT4r-25" target="VfxA0ULMO3mHmfpXdT4r-10" edge="1">
          <mxGeometry x="-1" relative="1" as="geometry">
            <mxPoint x="910" y="400" as="sourcePoint" />
            <mxPoint x="730" y="340" as="targetPoint" />
          </mxGeometry>
        </mxCell>
        <mxCell id="VfxA0ULMO3mHmfpXdT4r-35" value="" style="resizable=0;html=1;align=left;verticalAlign=bottom;labelBackgroundColor=#ffffff;fontSize=10;" parent="VfxA0ULMO3mHmfpXdT4r-34" connectable="0" vertex="1">
          <mxGeometry x="-1" relative="1" as="geometry" />
        </mxCell>
        <mxCell id="VfxA0ULMO3mHmfpXdT4r-36" value="Viewer&amp;lt;I&amp;gt;" style="html=1;" parent="1" vertex="1">
          <mxGeometry x="710" y="550" width="110" height="30" as="geometry" />
        </mxCell>
        <mxCell id="VfxA0ULMO3mHmfpXdT4r-37" value="CSVView" style="html=1;" parent="1" vertex="1">
          <mxGeometry x="710" y="600" width="110" height="30" as="geometry" />
        </mxCell>
        <mxCell id="25SMXkd-laVrYMDi6Cb3-2" value="" style="endArrow=block;endFill=1;html=1;edgeStyle=orthogonalEdgeStyle;align=left;verticalAlign=top;exitX=0.5;exitY=1;exitDx=0;exitDy=0;" edge="1" parent="1" source="VfxA0ULMO3mHmfpXdT4r-19">
          <mxGeometry x="-1" relative="1" as="geometry">
            <mxPoint x="310" y="775" as="sourcePoint" />
            <mxPoint x="900" y="228" as="targetPoint" />
            <Array as="points">
              <mxPoint x="295" y="710" />
              <mxPoint x="950" y="710" />
              <mxPoint x="950" y="228" />
            </Array>
          </mxGeometry>
        </mxCell>
        <mxCell id="25SMXkd-laVrYMDi6Cb3-3" value="" style="resizable=0;html=1;align=left;verticalAlign=bottom;labelBackgroundColor=#ffffff;fontSize=10;" connectable="0" vertex="1" parent="25SMXkd-laVrYMDi6Cb3-2">
          <mxGeometry x="-1" relative="1" as="geometry" />
        </mxCell>
        <mxCell id="25SMXkd-laVrYMDi6Cb3-6" value="" style="endArrow=block;endFill=1;html=1;edgeStyle=orthogonalEdgeStyle;align=left;verticalAlign=top;exitX=0.5;exitY=1;exitDx=0;exitDy=0;entryX=0.5;entryY=0;entryDx=0;entryDy=0;" edge="1" parent="1" source="VfxA0ULMO3mHmfpXdT4r-4" target="VfxA0ULMO3mHmfpXdT4r-19">
          <mxGeometry x="-1" relative="1" as="geometry">
            <mxPoint x="110" y="450" as="sourcePoint" />
            <mxPoint x="310" y="425" as="targetPoint" />
          </mxGeometry>
        </mxCell>
        <mxCell id="25SMXkd-laVrYMDi6Cb3-7" value="" style="resizable=0;html=1;align=left;verticalAlign=bottom;labelBackgroundColor=#ffffff;fontSize=10;" connectable="0" vertex="1" parent="25SMXkd-laVrYMDi6Cb3-6">
          <mxGeometry x="-1" relative="1" as="geometry" />
        </mxCell>
      </root>
    </mxGraphModel>
  </diagram>
</mxfile>
